<svg width="1440" height="360" viewBox="0 0 1440 360" fill="none" xmlns="http://www.w3.org/2000/svg">
<path d="M720 109C720 391.437 7.6294e-06 268.682 7.6294e-06 268.682L0 360H1440V268.682C1440 268.682 720 391.437 720 109Z" fill="#A52D3E"/>
<path d="M720 98C720 463.093 0 275 0 275V360H1440V275C1440 275 720 463.093 720 98Z" fill="#EA4256"/>
<g clip-path="url(#clip0_555_431)">
<path d="M726.21 137.623C718.006 137.977 709.531 137.776 701.378 136.718C696.619 136.1 691.98 135.069 687.783 133.006C688.407 147.644 690.063 162.259 692.48 176.78C693.463 176.974 694.484 177.491 695.381 177.721C697.901 178.365 700.442 178.83 703.039 179.053C707.349 179.422 711.692 179.373 715.994 179.836C716.069 179.844 716.123 179.88 716.159 179.929C717.98 179.983 719.801 180.038 721.627 179.994C723.345 179.952 725.06 179.839 726.775 179.728C730.42 179.386 734.095 179.389 737.742 179.055C740.161 178.833 742.526 178.368 744.876 177.724C745.711 177.494 746.663 176.977 747.579 176.783C749.825 162.295 751.368 147.711 751.953 133.107C743.648 135.808 734.881 137.251 726.215 137.623H726.21Z" fill="#EA4256"/>
<path d="M714.687 58.3473C706.99 61.3126 703.196 69.8442 706.214 77.4062C709.232 84.9682 717.918 88.6937 725.617 85.7283C733.313 82.763 737.107 74.2314 734.09 66.6694C731.072 59.1074 722.385 55.382 714.687 58.3473ZM710.263 76.2997C712.711 73.8824 715.037 71.3462 717.524 68.9677C718.563 67.9724 719.654 67.0339 720.683 66.0308C721.692 65.0458 722.55 63.9445 723.525 62.9388C723.587 62.8742 723.678 62.9543 723.644 63.0267C722.468 65.5241 719.724 67.3287 717.764 69.2056C715.277 71.5841 712.858 74.0298 710.405 76.4419C710.312 76.5324 710.17 76.3928 710.263 76.3023V76.2997ZM726.569 72.1684C725.547 74.3659 723.399 75.8731 721.839 77.6751C719.933 79.8726 717.985 82.0365 716.118 84.265C716.056 84.34 715.953 84.234 716.012 84.1616C717.745 82.0365 719.543 79.9656 721.325 77.8793C723.012 75.9093 724.872 74.1746 726.417 72.0805C726.484 71.99 726.615 72.0649 726.569 72.1684Z" fill="#A3BDC6"/>
<path d="M712.724 67.8956C715.383 65.574 718.088 63.317 720.526 60.7576C721.506 59.7286 722.486 58.6816 723.536 57.7172C720.688 57.0657 717.616 57.2209 714.689 58.3506C708.04 60.9127 704.308 67.6267 705.36 74.2839C707.821 72.1614 710.276 70.0337 712.726 67.8982L712.724 67.8956Z" fill="#E4E8EA"/>
<path d="M713.567 85.2402C715.208 83.6761 716.861 82.1249 718.501 80.5634C719.53 79.5835 720.549 78.5934 721.57 77.6032C723.19 75.7469 724.949 74.0768 726.419 72.081C726.486 71.9905 726.618 72.0655 726.571 72.1689C726.347 72.6497 726.063 73.0944 725.749 73.5184C728.39 70.9124 731.015 68.2883 733.636 65.6565C732.346 63.0221 730.345 60.9176 727.946 59.4854C726.445 60.5764 724.995 61.7216 723.582 62.9161C723.631 62.9186 723.67 62.9729 723.647 63.0272C722.47 65.5246 719.726 67.3292 717.766 69.2061C715.28 71.5846 712.86 74.0303 710.408 76.4424C710.315 76.5329 710.173 76.3933 710.266 76.3028C712.713 73.8855 715.04 71.3493 717.526 68.9708C718.566 67.9755 719.657 67.037 720.686 66.0339C721.658 65.0877 722.491 64.0329 723.422 63.0582C717.619 67.991 712.44 73.6632 706.944 78.9605C708.46 81.7655 710.813 83.9191 713.567 85.2454V85.2402Z" fill="#E4E8EA"/>
<path d="M727.126 82.3961C725.937 83.7379 724.73 85.0745 723.492 86.3749C724.206 86.2146 724.916 86 725.617 85.7312C731.129 83.6086 734.637 78.6319 735.078 73.2002C732.542 76.3594 729.813 79.3661 727.126 82.3961Z" fill="#A3BDC6"/>
<path d="M734.59 68.1569C734.484 71.1196 733.677 73.9971 731.851 76.4842C729.326 79.9226 724.813 82.1537 720.606 82.5079C719.628 82.5907 718.646 82.5726 717.676 82.4588C717.155 83.0612 716.629 83.6584 716.118 84.2685C716.056 84.3435 715.953 84.2375 716.012 84.1651C716.49 83.5808 716.98 83.0069 717.464 82.4278C713.343 81.89 709.438 79.6744 706.859 76.4092C706.33 75.7396 705.794 74.9097 705.314 73.9919C705.471 75.1372 705.765 76.2825 706.214 77.4071C709.232 84.9691 717.918 88.6946 725.617 85.7292C732.813 82.9578 736.597 75.3182 734.59 68.1543V68.1569Z" fill="#678B9E"/>
<path d="M714.756 34.0687C712.097 33.7404 707.413 32.8614 703.462 31.1576C703.067 32.1866 702.691 33.2155 702.319 34.2419C703.645 34.896 705.002 35.4105 706.129 35.7879C709.706 36.9953 713.5 37.9441 717.302 38.0475C724.098 38.2362 730.835 36.8065 736.88 33.7068C737.283 33.4999 737.667 33.2776 738.056 33.0604C737.716 32.0573 737.363 31.0542 736.999 30.0537C730.084 33.3965 722.334 35.0046 714.756 34.0635V34.0687Z" fill="#EA4256"/>
<path d="M706.129 31.1994C709.706 32.4068 713.5 33.3556 717.302 33.459C724.028 33.6451 730.696 32.2439 736.69 29.2113C733.079 19.4389 728.331 9.95854 721.111 3.20312C721.104 3.22381 721.114 3.24708 721.109 3.26776C721.07 3.38151 720.9 3.3841 720.9 3.26776C713.013 10.2714 707.749 20.1886 703.787 30.3204C704.615 30.6643 705.42 30.9564 706.129 31.1943V31.1994ZM711.36 18.9683C712.843 16.6338 714.568 14.4932 716.121 12.2103C716.219 12.0681 716.443 12.1922 716.355 12.3448C715.138 14.5009 713.652 16.5071 712.334 18.6064C711.225 20.3773 709.954 22.3189 709.936 24.4544C710.588 24.1777 711.006 23.6322 711.571 23.185C711.677 23.1022 711.86 23.2108 711.772 23.3375C711.218 24.126 710.671 24.9249 709.706 25.2144C709.479 25.2817 709.314 25.1007 709.286 24.899C709.002 22.8127 710.281 20.6695 711.36 18.9683ZM707.284 27.8902C707.444 27.4559 707.795 27.125 708.197 26.9052C708.329 26.8328 708.43 27.0164 708.314 27.0991C708.074 27.2672 707.844 27.5903 707.728 27.8515C707.578 28.1875 707.749 28.1953 708.027 28.3272C708.138 28.3814 708.087 28.5185 707.996 28.5572C707.545 28.7434 707.117 28.3401 707.284 27.8902Z" fill="#FFE500"/>
<path d="M716.397 12.7225C716.293 12.7665 716.208 12.7432 716.146 12.6915C714.97 14.7158 713.58 16.6212 712.334 18.6067C711.225 20.3776 709.954 22.3192 709.936 24.4547C710.588 24.178 711.006 23.6325 711.571 23.1853C711.677 23.1026 711.86 23.2111 711.772 23.3378C711.592 23.5964 711.411 23.8523 711.215 24.0927C712.812 22.9345 713.946 20.1812 714.769 18.8084C715.478 17.6269 716.226 16.4014 716.626 15.0752C716.763 14.6176 717.508 12.2572 716.397 12.7225Z" fill="white"/>
<path d="M730.267 15.1028C730.778 17.8872 730.954 20.6768 729.909 23.4249C728.416 27.3546 725.045 29.6064 721.026 30.4518C717.06 31.2869 712.445 31.9642 708.775 29.7124C707.39 28.8618 706.268 27.7114 705.425 26.3334C704.855 27.6545 704.308 28.9859 703.787 30.3225C704.615 30.6664 705.42 30.9585 706.129 31.1964C709.706 32.4037 713.5 33.3525 717.302 33.4559C724.028 33.6421 730.696 32.2408 736.69 29.2083C734.889 24.3298 732.803 19.5263 730.267 15.0977V15.1028Z" fill="#DE953D"/>
<path d="M739.684 38.0632C739.258 36.7033 738.815 35.3331 738.358 33.9629C731.108 37.7659 722.834 39.6609 714.759 38.6604C711.767 38.2907 706.217 37.2256 702.025 35.072C701.672 36.0725 701.324 37.0704 700.991 38.0658C696.055 52.7865 692.204 67.8537 690.022 83.3113C687.724 99.6013 687.097 115.964 687.757 132.303C693.014 134.736 699.165 135.594 704.79 136.033C712.211 136.615 719.752 136.92 727.183 136.445C735.846 135.891 744.094 134.231 752.002 131.556C752.572 115.465 751.974 99.3531 749.866 83.3113C747.837 67.8537 744.28 52.7865 739.681 38.0658L739.684 38.0632ZM720.353 91.5455C709.361 91.5455 700.45 82.7916 700.45 71.9928C700.45 61.1939 709.361 52.4401 720.353 52.4401C731.345 52.4401 740.256 61.1939 740.256 71.9928C740.256 82.7916 731.345 91.5455 720.353 91.5455Z" fill="#A3BDC6"/>
<path d="M709.985 41.0108C713.268 41.9751 716.732 42.244 720.139 42.3293C724.488 42.4405 728.965 42.2802 733.203 41.2099C735.434 40.6463 737.99 39.7595 739.702 38.1204C739.697 38.1023 739.692 38.0842 739.684 38.0661C739.258 36.7062 738.815 35.336 738.358 33.9658C731.108 37.7688 722.834 39.6638 714.759 38.6633C711.767 38.2936 706.217 37.2285 702.026 35.0749C701.848 35.5816 701.677 36.0832 701.502 36.5873C703.697 38.8727 707.475 40.2766 709.985 41.0134V41.0108Z" fill="#678B9E"/>
<path d="M720.353 91.5456C712.087 91.5456 704.999 86.5948 701.992 79.5498C702.232 81.1475 702.608 82.7168 703.163 84.2395C705.342 90.2245 710.325 94.9634 716.577 96.4215C721.921 97.6676 727.895 96.5896 731.939 92.6883C734.845 89.8859 736.414 86.1889 737.285 82.2695C733.778 87.8357 727.508 91.5456 720.353 91.5456Z" fill="#678B9E"/>
<path d="M742.949 135.508C742.4 139.017 741.497 142.458 740.238 145.79C736.873 154.71 730.061 166.067 718.986 164.8C707.367 163.469 701.326 151.488 698.654 141.424C698.185 139.658 697.785 137.877 697.427 136.085C694.063 135.439 690.806 134.492 687.783 133.006C688.407 147.644 690.063 162.259 692.48 176.78C693.463 176.974 694.484 177.491 695.381 177.721C697.901 178.365 700.442 178.83 703.039 179.053C707.349 179.422 711.692 179.373 715.994 179.836C716.069 179.844 716.123 179.88 716.159 179.929C717.98 179.983 719.801 180.038 721.627 179.994C723.345 179.952 725.06 179.839 726.775 179.728C730.42 179.386 734.095 179.389 737.742 179.055C740.161 178.833 742.526 178.368 744.876 177.724C745.711 177.494 746.663 176.977 747.579 176.783C749.825 162.295 751.368 147.711 751.953 133.107C749.002 134.066 745.993 134.86 742.952 135.508H742.949Z" fill="#A52D3E"/>
<path d="M749.869 83.3092C749.557 80.9333 749.204 78.5678 748.822 76.21C748.801 77.8697 748.76 79.5295 748.675 81.1893C748.236 89.7828 747.169 98.3686 746.201 106.916C745.226 115.532 744.192 124.144 743.308 132.771C743.261 133.208 743.207 133.645 743.153 134.079C746.152 133.376 749.1 132.533 752.005 131.551C752.575 115.46 751.976 99.3485 749.869 83.3066V83.3092Z" fill="#678B9E"/>
<path d="M695.601 123.903C694.752 116.396 693.919 108.875 693.452 101.334C692.859 91.7215 692.294 81.8637 693.3 72.2645C693.929 66.2485 695.041 60.3048 696.044 54.3457C693.465 63.8519 691.407 73.5028 690.022 83.3115C687.724 99.6015 687.097 115.964 687.757 132.303C690.718 133.673 693.963 134.542 697.236 135.121C696.532 131.409 696.026 127.657 695.601 123.903Z" fill="#678B9E"/>
<path d="M728.913 180.374C723.401 180.925 717.81 180.786 712.283 180.38C708.148 180.468 703.952 180.387 699.913 179.71C699.402 179.625 698.051 179.441 696.583 179.139C696.733 179.524 696.81 179.95 696.898 180.338C697.024 180.892 697.228 181.471 697.218 182.042C703.552 184.86 710.547 184.201 717.322 184.707C718.403 184.718 719.479 184.767 720.572 184.72C721.766 184.671 722.991 184.508 724.155 184.733C730.554 184.185 737.177 184.901 743.163 182.042C743.153 181.471 743.344 180.892 743.46 180.338C743.542 179.948 743.614 179.524 743.754 179.139C742.387 179.441 741.128 179.625 740.651 179.71C736.818 180.4 732.834 180.47 728.913 180.374Z" fill="#678B9E"/>
<path d="M720.474 53.4023C710.088 53.4023 701.669 61.6727 701.669 71.8744C701.669 82.076 710.088 90.3464 720.474 90.3464C730.861 90.3464 739.279 82.076 739.279 71.8744C739.279 61.6727 730.861 53.4023 720.474 53.4023ZM725.991 86.4064C717.843 89.545 708.649 85.5998 705.456 77.5982C702.263 69.5967 706.276 60.5636 714.423 57.4251C722.571 54.2865 731.766 58.2317 734.959 66.2332C738.154 74.2373 734.139 83.2678 725.991 86.4064Z" fill="#EA4256"/>
<path d="M751.195 80.7806C748.943 65.3695 745.304 50.2506 740.36 35.6643C736.174 23.3117 730.796 11.091 721.261 2.87229C721.33 2.78439 721.299 2.66546 721.23 2.606C721.364 1.76836 721.312 0.791115 721.088 0.0620583C721.062 -0.0206715 720.946 -0.0180862 720.92 0.0620583C720.771 0.54034 720.763 1.04448 720.722 1.54085C720.688 1.94416 720.673 2.3423 720.722 2.73527C720.719 2.76112 720.722 2.78697 720.729 2.81283C720.732 2.82834 720.735 2.84644 720.737 2.86195C710.493 11.0806 704.721 23.3092 700.225 35.6669C694.92 50.2532 691.012 65.3721 688.593 80.7831C683.605 112.585 684.575 145.871 691.474 177.388C691.474 177.388 691.476 177.388 691.479 177.388C691.665 177.414 691.848 177.445 692.031 177.476C692.745 178.133 694.311 178.627 695.877 178.983C695.871 179.506 696.016 180.049 696.101 180.553C696.217 181.235 696.261 181.993 696.759 182.52C696.797 182.562 696.849 182.58 696.9 182.585C697.233 182.944 697.734 183.249 698.244 183.397C700.46 184.718 703.544 184.904 705.971 185.201C708.303 185.488 710.702 185.638 713.108 185.692C714.921 185.873 716.76 185.91 718.55 185.951C721.88 186.026 725.253 186.054 728.57 185.687C730.739 185.628 732.903 185.478 735.005 185.201C737.265 184.904 740.14 184.718 742.204 183.397C742.681 183.249 743.145 182.947 743.455 182.585C743.504 182.58 743.55 182.562 743.589 182.52C744.053 181.993 744.094 181.238 744.203 180.553C744.282 180.049 744.414 179.506 744.411 178.983C745.871 178.624 747.328 178.13 747.994 177.476C748.164 177.445 748.337 177.414 748.51 177.388C748.51 177.388 748.512 177.388 748.515 177.388C754.94 145.871 755.845 112.585 751.197 80.7831L751.195 80.7806ZM743.46 180.338C743.341 180.891 743.153 181.471 743.163 182.042C737.177 184.901 730.554 184.185 724.155 184.733C722.991 184.508 721.766 184.669 720.572 184.72C719.481 184.764 718.403 184.718 717.322 184.707C710.547 184.203 703.55 184.862 697.218 182.042C697.228 181.471 697.024 180.891 696.898 180.338C696.808 179.948 696.733 179.524 696.583 179.139C698.051 179.441 699.402 179.625 699.913 179.71C703.952 180.387 708.146 180.47 712.283 180.38C717.812 180.785 723.401 180.925 728.913 180.374C732.836 180.47 736.818 180.4 740.651 179.71C741.126 179.625 742.387 179.441 743.754 179.139C743.614 179.524 743.545 179.95 743.46 180.338ZM747.576 176.781C746.66 176.975 745.709 177.492 744.873 177.722C742.526 178.366 740.158 178.831 737.739 179.053C734.092 179.387 730.419 179.384 726.772 179.725C725.057 179.837 723.34 179.95 721.624 179.992C719.798 180.036 717.977 179.981 716.157 179.927C716.12 179.878 716.066 179.844 715.992 179.834C711.689 179.371 707.346 179.42 703.036 179.051C700.439 178.828 697.899 178.363 695.379 177.719C694.481 177.489 693.46 176.972 692.477 176.778C687.324 145.814 685.63 114.426 690.019 83.3064C692.201 67.8488 696.052 52.7817 700.988 38.0609C705.226 25.4291 711.001 12.0553 720.897 3.26526C720.897 3.38418 721.067 3.38418 721.106 3.26784C721.111 3.24716 721.103 3.22389 721.109 3.20321C730.505 11.9933 735.725 25.4007 739.681 38.0609C744.28 52.7817 747.837 67.8488 749.866 83.3064C753.957 114.423 752.373 145.814 747.573 176.778L747.576 176.781Z" fill="black"/>
<path d="M737.6 28.7256C737.357 28.8549 737.125 28.9945 736.88 29.1211C730.835 32.2209 724.098 33.6506 717.302 33.4619C713.503 33.3559 709.709 32.4071 706.129 31.2023C705.221 30.8972 704.161 30.5094 703.09 30.0286C703.016 30.3181 702.933 30.6025 702.838 30.8843C706.91 32.7716 711.955 33.7256 714.753 34.072C722.666 35.0518 730.77 33.2602 737.912 29.6123C737.809 29.3176 737.703 29.0229 737.597 28.7282L737.6 28.7256Z" fill="black"/>
<path d="M738.944 32.5781C738.27 32.9711 737.584 33.3485 736.88 33.7105C730.835 36.8103 724.098 38.2399 717.302 38.0512C713.503 37.9452 709.709 36.9964 706.129 35.7917C704.806 35.347 703.16 34.7265 701.626 33.8966C701.515 34.1577 701.406 34.4189 701.301 34.6826C705.554 37.0998 711.591 38.2684 714.759 38.6614C723.167 39.7032 731.792 37.6143 739.25 33.4907C739.15 33.1857 739.047 32.8832 738.946 32.5807L738.944 32.5781Z" fill="black"/>
<path d="M720.353 91.5458C731.345 91.5458 740.256 82.7919 740.256 71.9931C740.256 61.1943 731.345 52.4404 720.353 52.4404C709.361 52.4404 700.449 61.1943 700.449 71.9931C700.449 82.7919 709.361 91.5458 720.353 91.5458ZM720.474 53.4022C730.86 53.4022 739.279 61.6726 739.279 71.8742C739.279 82.0758 730.86 90.3462 720.474 90.3462C710.088 90.3462 701.669 82.0758 701.669 71.8742C701.669 61.6726 710.088 53.4022 720.474 53.4022Z" fill="black"/>
<path d="M714.423 57.4245C706.276 60.563 702.263 69.5935 705.456 77.5976C708.649 85.6017 717.843 89.5443 725.991 86.4058C734.138 83.2672 738.154 74.2367 734.959 66.2326C731.766 58.2285 722.571 54.2859 714.423 57.4245ZM725.617 85.7284C717.918 88.6938 709.234 84.9683 706.214 77.4063C703.196 69.8443 706.988 61.3128 714.686 58.3474C722.383 55.3821 731.069 59.1101 734.089 66.6695C737.107 74.2316 733.313 82.7631 725.617 85.7284Z" fill="black"/>
<path d="M716.118 84.2685C717.985 82.04 719.935 79.8761 721.838 77.6786C723.399 75.8766 725.545 74.3694 726.569 72.1719C726.618 72.071 726.484 71.9935 726.417 72.084C724.872 74.1781 723.012 75.9128 721.325 77.8828C719.543 79.9666 717.745 82.0374 716.012 84.1651C715.953 84.2375 716.056 84.3435 716.118 84.2685Z" fill="black"/>
<path d="M710.408 76.4428C712.86 74.0307 715.28 71.585 717.766 69.2065C719.726 67.3296 722.468 65.5276 723.647 63.0276C723.68 62.9553 723.592 62.8751 723.528 62.9398C722.553 63.9454 721.694 65.0468 720.686 66.0318C719.657 67.0349 718.563 67.9759 717.526 68.9687C715.04 71.3472 712.713 73.8834 710.266 76.3006C710.173 76.3911 710.317 76.5307 710.408 76.4402V76.4428Z" fill="black"/>
<path d="M752.997 132.168C752.985 131.861 752.974 131.55 752.954 131.24C744.757 134.105 736.194 135.865 727.185 136.442C719.755 136.918 712.21 136.612 704.793 136.031C698.874 135.568 692.371 134.645 686.94 131.91C686.947 132.14 686.953 132.373 686.958 132.6C691.366 134.948 696.307 136.062 701.38 136.719C709.533 137.776 718.008 137.975 726.213 137.623C735.245 137.236 744.388 135.687 753.003 132.76C753.003 132.564 753.005 132.365 753 132.168H752.997Z" fill="black"/>
<path d="M716.12 12.2082C714.57 14.4911 712.842 16.6317 711.359 18.9662C710.281 20.6674 709.002 22.8106 709.286 24.8969C709.314 25.0986 709.477 25.2795 709.706 25.2123C710.671 24.9228 711.22 24.1239 711.772 23.3354C711.86 23.2087 711.677 23.1001 711.571 23.1829C711.006 23.6301 710.588 24.1756 709.936 24.4523C709.956 22.3168 711.225 20.3752 712.334 18.6043C713.652 16.505 715.138 14.4988 716.355 12.3427C716.443 12.1901 716.216 12.0635 716.12 12.2082Z" fill="black"/>
<path d="M708.197 26.9052C707.795 27.125 707.444 27.4559 707.284 27.8902C707.117 28.3401 707.547 28.7434 707.996 28.5572C708.086 28.521 708.138 28.3814 708.027 28.3271C707.749 28.1927 707.578 28.1875 707.728 27.8514C707.844 27.5877 708.074 27.2672 708.313 27.0991C708.432 27.0164 708.329 26.8328 708.197 26.9052Z" fill="black"/>
<path d="M773.523 152.311C779.579 155.168 785.459 158.361 791.089 161.913C794.445 164.028 798.045 166.021 801.347 168.324C801.37 165.99 801.321 163.65 801.153 161.292C800.658 154.302 799.394 147.368 797.95 140.504C795.283 127.807 790.857 115.587 785.887 103.555C786.204 108.588 785.972 113.702 785.972 118.73C785.972 124.116 786.336 130.119 785.01 135.408C785.15 135.62 785.281 135.835 785.4 136.052C785.436 135.974 785.472 135.897 785.508 135.825C785.882 135.044 786.437 134.359 786.901 133.627C787.038 133.415 787.344 133.601 787.244 133.818C786.95 134.465 786.609 135.088 786.295 135.724C786.024 136.264 785.962 136.99 785.531 137.427C785.456 137.502 785.307 137.489 785.255 137.394C785.211 137.306 785.183 137.221 785.168 137.133C785.162 137.128 785.157 137.128 785.152 137.122C784.892 136.825 784.52 136.538 784.247 136.254C783.963 136.246 783.576 136.062 783.576 135.734V135.682C781.376 133.477 778.846 131.585 776.349 129.664C772.349 126.59 768.271 123.668 764.073 120.843C758.654 117.192 753.09 113.767 747.473 110.393C747.677 117.464 747.303 124.565 746.828 131.61C746.609 134.878 746.387 138.172 746.114 141.466C755.517 144.428 764.72 148.164 773.523 152.316V152.311ZM796.253 146.295C797.003 148.606 797.419 150.93 797.702 153.332C797.844 154.532 797.968 155.734 798.1 156.934C798.247 158.268 798.579 159.635 798.456 160.977C798.443 161.122 798.21 161.223 798.133 161.06C797.174 159.072 797.269 156.507 797.065 154.361C796.813 151.701 796.562 148.991 795.869 146.396C795.807 146.161 796.176 146.065 796.253 146.295ZM795.564 141.693C795.771 142.127 795.972 142.526 796.09 142.991C796.186 143.374 796.328 143.88 795.998 144.183C795.9 144.273 795.76 144.245 795.685 144.144C795.451 143.834 795.557 143.343 795.489 142.973C795.417 142.562 795.36 142.169 795.324 141.753C795.314 141.636 795.51 141.582 795.562 141.691L795.564 141.693Z" fill="#EA4256"/>
<path d="M666.716 153.971C661.042 156.758 655.5 159.808 650.174 163.198C646.625 165.455 643.05 167.642 639.602 170.023C639.645 172.963 639.798 175.894 640.006 178.844C647.726 174.69 654.824 169.521 662.499 165.271C667.047 162.753 671.656 160.346 676.319 158.045C679.522 156.466 682.756 154.558 686.189 153.405C686.687 153.089 687.223 152.81 687.773 152.546C688.549 151.98 689.454 151.572 690.357 151.236C691.378 150.856 692.413 150.512 693.465 150.222C693.488 150.214 693.517 150.204 693.54 150.199C693.277 147.944 693.07 145.68 692.882 143.415C683.992 146.515 675.204 149.801 666.711 153.971H666.716Z" fill="#FFE500"/>
<path d="M649.482 163.06C654.909 159.508 660.575 156.315 666.412 153.458C674.89 149.306 683.76 145.571 692.82 142.611C692.555 139.314 692.341 136.021 692.129 132.753C691.673 125.708 691.301 118.606 691.5 111.535C686.086 114.906 680.708 118.332 675.483 121.985C671.439 124.811 667.47 127.732 663.616 130.806C661.21 132.724 658.778 134.619 656.578 136.825V136.876C656.578 137.205 656.279 137.388 656.005 137.396C655.742 137.68 655.456 137.967 655.206 138.265C655.2 138.27 655.195 138.27 655.19 138.275C655.175 138.363 655.149 138.451 655.105 138.536C655.056 138.632 654.912 138.645 654.839 138.57C654.422 138.133 654.362 137.406 654.104 136.866C653.797 136.233 653.472 135.607 653.189 134.961C653.093 134.743 653.39 134.557 653.519 134.772C653.968 135.504 654.502 136.191 654.863 136.969C654.896 137.044 654.932 137.119 654.968 137.197C655.084 136.98 655.208 136.763 655.345 136.553C654.066 131.266 654.416 125.261 654.416 119.878C654.416 114.847 654.195 109.736 654.499 104.702C649.709 116.737 645.446 128.958 642.875 141.651C641.484 148.515 640.264 155.447 639.787 162.437C639.627 164.798 639.578 167.137 639.602 169.469C642.782 167.163 646.253 165.173 649.488 163.058L649.482 163.06ZM644.659 144.138C644.773 143.673 644.966 143.272 645.165 142.841C645.216 142.732 645.405 142.784 645.394 142.903C645.361 143.319 645.307 143.712 645.235 144.123C645.173 144.49 645.271 144.981 645.046 145.294C644.974 145.392 644.84 145.421 644.745 145.333C644.427 145.033 644.564 144.524 644.657 144.141L644.659 144.138ZM642.722 158.081C642.849 156.881 642.97 155.679 643.107 154.48C643.38 152.081 643.78 149.756 644.502 147.442C644.574 147.21 644.933 147.305 644.871 147.543C644.203 150.139 643.96 152.848 643.718 155.509C643.522 157.654 643.612 160.219 642.689 162.207C642.614 162.37 642.392 162.269 642.379 162.124C642.261 160.783 642.581 159.415 642.722 158.081Z" fill="#EA4256"/>
<path d="M790.37 162.053C784.843 158.664 779.094 155.61 773.205 152.826C764.392 148.653 755.272 145.367 746.044 142.268C745.851 144.535 745.637 146.8 745.363 149.054C745.389 149.059 745.423 149.07 745.446 149.077C746.537 149.367 747.61 149.711 748.672 150.091C749.609 150.427 750.547 150.833 751.355 151.401C751.925 151.665 752.482 151.944 752.998 152.26C756.559 153.41 759.918 155.321 763.24 156.9C768.081 159.199 772.862 161.608 777.58 164.126C785.544 168.377 792.913 173.545 800.919 177.699C801.135 174.749 801.295 171.818 801.339 168.878C797.762 166.5 794.053 164.313 790.37 162.053Z" fill="#FFE500"/>
<path d="M762.136 134.159C760.415 128.735 759.399 123.016 758.659 117.298C754.971 114.94 751.239 112.649 747.473 110.39C747.677 117.46 747.303 124.562 746.828 131.607C746.609 134.875 746.387 138.169 746.114 141.462C754.671 144.159 763.059 147.499 771.134 151.206C767.245 146.054 764.096 140.333 762.136 134.159Z" fill="#A52D3E"/>
<path d="M692.887 143.414C683.997 146.514 675.21 149.8 666.717 153.97C665.138 154.745 663.572 155.542 662.015 156.359C655.928 164.552 648.489 171.821 639.906 177.32C639.94 177.827 639.97 178.334 640.007 178.843C647.726 174.689 654.824 169.521 662.5 165.27C667.047 162.752 671.656 160.345 676.319 158.044C679.522 156.465 682.756 154.557 686.189 153.404C686.687 153.088 687.224 152.809 687.773 152.545C688.549 151.979 689.454 151.571 690.357 151.235C691.379 150.855 692.413 150.511 693.465 150.221C693.488 150.213 693.517 150.203 693.54 150.198C693.277 147.944 693.07 145.679 692.882 143.414H692.887Z" fill="#DE953D"/>
<path d="M692.127 132.753C691.67 125.708 691.299 118.606 691.497 111.535C686.824 114.446 682.181 117.406 677.637 120.509C675.994 131.525 671.511 142.132 665.471 151.411C664.617 152.722 663.727 154.009 662.809 155.281C664.003 154.661 665.203 154.051 666.412 153.459C674.89 149.307 683.76 145.571 692.82 142.611C692.555 139.314 692.341 136.021 692.129 132.753H692.127Z" fill="#A52D3E"/>
<path d="M771.916 152.23C763.503 148.342 754.824 145.214 746.044 142.264C745.851 144.531 745.637 146.796 745.363 149.05C745.389 149.055 745.423 149.066 745.446 149.073C746.537 149.363 747.61 149.707 748.672 150.087C749.609 150.423 750.547 150.829 751.355 151.398C751.925 151.661 752.482 151.94 752.998 152.256C756.559 153.406 759.918 155.317 763.24 156.897C768.081 159.195 772.862 161.604 777.58 164.122C785.544 168.373 792.913 173.541 800.919 177.695C800.983 176.819 801.04 175.945 801.091 175.071C790.045 169.409 779.62 162.031 771.916 152.227V152.23Z" fill="#DE953D"/>
<path d="M694.654 151.311C694.654 151.311 694.646 151.311 694.633 151.311C694.639 151.311 694.644 151.238 694.639 151.223C694.621 151.171 694.621 151.099 694.615 151.049C694.615 151.031 694.618 151.003 694.615 150.985C694.621 150.985 694.626 150.977 694.628 150.977C694.066 144.907 693.385 138.844 693.009 132.758C692.562 125.561 692.446 118.348 692.121 111.148C692.147 111.132 692.173 111.117 692.199 111.099C692.155 110.755 692.119 110.398 692.106 110.046C685.854 113.552 679.824 117.422 673.946 121.523C670.103 124.206 666.358 127.019 662.698 129.933C660.795 131.448 658.316 133.066 656.521 135.033C656.436 130.005 655.791 124.915 655.724 119.881C655.652 114.387 655.995 108.723 655.064 103.283C655.108 103.172 655.152 103.058 655.198 102.947C655.293 102.707 654.994 102.588 654.819 102.707C654.729 102.717 654.638 102.779 654.628 102.883C654.623 102.95 654.618 103.017 654.612 103.084C649.274 115.944 644.471 128.754 641.559 142.378C639.029 154.216 636.592 167.443 638.975 179.55C638.828 179.933 639.161 180.481 639.633 180.297C643.274 178.883 646.545 176.654 649.792 174.534C653.547 172.081 657.352 169.736 661.251 167.51C669.977 162.531 679.187 157.285 688.709 153.958C689.052 153.839 689.166 153.547 689.124 153.283C689.56 153.123 689.996 152.965 690.44 152.82C691.647 152.425 692.89 152.034 694.071 151.528C694.084 151.528 694.087 151.533 694.102 151.53C694.262 151.515 694.512 151.473 694.512 151.365V151.375C694.512 151.375 694.533 151.36 694.535 151.355C694.541 151.347 694.548 151.339 694.554 151.334C694.579 151.303 694.615 151.313 694.633 151.277C694.641 151.274 694.652 151.311 694.657 151.311H694.654ZM693.47 150.225C692.418 150.514 691.384 150.856 690.362 151.238C689.46 151.574 688.554 151.98 687.778 152.549C687.229 152.815 686.692 153.092 686.194 153.407C682.762 154.56 679.527 156.468 676.324 158.048C671.661 160.349 667.052 162.756 662.505 165.274C654.829 169.524 647.729 174.692 640.012 178.847C639.625 173.371 639.411 167.96 639.787 162.443C640.265 155.452 641.484 148.518 642.875 141.657C645.446 128.961 649.709 116.74 654.499 104.708C654.195 109.741 654.416 114.855 654.416 119.884C654.416 125.269 654.066 131.272 655.345 136.559C655.211 136.771 655.084 136.985 654.968 137.203C654.935 137.125 654.899 137.047 654.863 136.975C654.502 136.194 653.968 135.509 653.519 134.778C653.387 134.563 653.093 134.752 653.189 134.966C653.472 135.613 653.797 136.236 654.104 136.872C654.365 137.412 654.424 138.138 654.839 138.575C654.912 138.65 655.056 138.637 655.105 138.542C655.149 138.456 655.175 138.369 655.19 138.281C655.195 138.275 655.201 138.273 655.206 138.27C655.456 137.973 655.74 137.686 656.005 137.402C656.276 137.394 656.578 137.21 656.578 136.882V136.83C658.778 134.625 661.21 132.733 663.616 130.812C667.472 127.738 671.439 124.816 675.483 121.991C680.706 118.34 686.086 114.915 691.5 111.541C691.304 118.612 691.675 125.713 692.129 132.758C692.503 138.539 692.872 144.403 693.548 150.207C693.524 150.212 693.496 150.222 693.473 150.23L693.47 150.225Z" fill="black"/>
<path d="M693.31 142.445C684.077 145.431 675.045 149.232 666.41 153.459C660.573 156.316 654.907 159.508 649.48 163.061C645.934 165.382 642.096 167.549 638.676 170.147V170.654C642.403 168.022 646.308 165.656 650.174 163.198C655.5 159.808 661.042 156.755 666.717 153.971C675.346 149.731 684.281 146.406 693.321 143.262C693.313 142.991 693.308 142.717 693.313 142.445H693.31Z" fill="black"/>
<path d="M644.505 147.443C643.783 149.754 643.383 152.081 643.109 154.48C642.973 155.68 642.851 156.882 642.725 158.082C642.583 159.416 642.263 160.783 642.382 162.125C642.395 162.27 642.617 162.371 642.692 162.208C643.615 160.22 643.525 157.655 643.721 155.509C643.963 152.849 644.206 150.14 644.874 147.544C644.935 147.309 644.577 147.213 644.505 147.443Z" fill="black"/>
<path d="M645.168 142.841C644.969 143.272 644.775 143.673 644.662 144.138C644.569 144.521 644.432 145.028 644.75 145.33C644.845 145.421 644.979 145.392 645.051 145.292C645.276 144.981 645.178 144.49 645.24 144.12C645.309 143.709 645.364 143.316 645.4 142.9C645.41 142.784 645.219 142.729 645.17 142.838L645.168 142.841Z" fill="black"/>
<path d="M744.215 150.206H744.236C744.236 150.206 744.226 150.111 744.231 150.095C744.249 150.046 744.249 149.961 744.257 149.909C744.257 149.891 744.252 149.857 744.257 149.839C744.252 149.839 744.246 149.829 744.244 149.829C744.827 143.759 745.533 137.693 745.925 131.608C746.387 124.41 746.508 117.197 746.846 109.994C746.82 109.979 746.792 109.961 746.766 109.945C746.813 109.602 746.846 109.245 746.862 108.893C753.351 112.399 759.608 116.266 765.705 120.369C769.693 123.053 773.579 125.866 777.376 128.779C779.352 130.294 781.923 131.913 783.785 133.88C783.875 128.852 784.543 123.761 784.613 118.728C784.688 113.231 784.329 107.569 785.299 102.13C785.253 102.019 785.206 101.908 785.16 101.794C785.059 101.553 785.369 101.435 785.554 101.553C785.65 101.561 785.743 101.626 785.753 101.729C785.758 101.796 785.763 101.864 785.769 101.931C791.306 114.79 796.292 127.6 799.312 141.225C801.937 153.063 804.465 166.29 801.994 178.397C802.146 178.779 801.801 179.327 801.313 179.144C797.535 177.73 794.141 175.501 790.772 173.381C786.875 170.928 782.929 168.583 778.882 166.357C769.827 161.377 760.271 156.132 750.393 152.802C750.039 152.683 749.918 152.391 749.962 152.127C749.511 151.967 749.057 151.809 748.597 151.664C747.344 151.269 746.054 150.879 744.829 150.372C744.814 150.372 744.626 150.377 744.607 150.374C744.442 150.359 743.994 150.318 743.994 150.212V150.222C743.994 150.222 744.161 150.206 744.156 150.201C744.151 150.196 744.236 150.186 744.231 150.181C744.205 150.149 744.215 150.181 744.197 150.144C744.19 150.144 744.226 150.201 744.221 150.201L744.215 150.206ZM745.446 149.077C746.537 149.366 747.61 149.71 748.672 150.09C749.609 150.426 750.547 150.832 751.355 151.401C751.925 151.664 752.482 151.944 752.998 152.259C756.559 153.41 759.917 155.32 763.239 156.9C768.081 159.198 772.862 161.608 777.58 164.126C785.544 168.376 792.913 173.544 800.919 177.699C801.321 172.223 801.543 166.812 801.153 161.295C800.658 154.304 799.394 147.37 797.95 140.506C795.283 127.81 790.857 115.589 785.887 103.557C786.204 108.591 785.972 113.704 785.972 118.733C785.972 124.118 786.336 130.121 785.01 135.411C785.15 135.623 785.281 135.837 785.4 136.054C785.436 135.977 785.472 135.899 785.508 135.827C785.882 135.046 786.437 134.361 786.901 133.629C787.037 133.417 787.344 133.604 787.244 133.821C786.95 134.467 786.609 135.09 786.295 135.726C786.024 136.266 785.962 136.993 785.531 137.43C785.456 137.505 785.307 137.492 785.255 137.396C785.211 137.308 785.183 137.223 785.168 137.135C785.162 137.13 785.157 137.13 785.152 137.125C784.892 136.827 784.52 136.54 784.247 136.256C783.963 136.248 783.576 136.065 783.576 135.736V135.685C781.376 133.479 778.846 131.587 776.349 129.666C772.349 126.592 768.271 123.671 764.073 120.845C758.654 117.195 753.09 113.769 747.473 110.395C747.677 117.466 747.303 124.568 746.828 131.613C746.441 137.394 746.065 143.257 745.361 149.061C745.386 149.066 745.42 149.077 745.443 149.084L745.446 149.077Z" fill="black"/>
<path d="M745.608 141.298C755.19 144.284 764.563 148.084 773.52 152.311C779.576 155.168 785.457 158.361 791.087 161.913C794.767 164.235 798.747 166.401 802.299 168.999V169.506C798.432 166.874 794.38 164.509 790.37 162.05C784.843 158.661 779.094 155.608 773.205 152.823C764.251 148.583 754.981 145.259 745.601 142.115C745.608 141.843 745.613 141.569 745.608 141.298Z" fill="black"/>
<path d="M796.253 146.295C797.003 148.606 797.419 150.93 797.702 153.332C797.844 154.532 797.968 155.734 798.1 156.933C798.247 158.267 798.579 159.635 798.455 160.977C798.443 161.121 798.21 161.222 798.133 161.059C797.174 159.071 797.269 156.507 797.065 154.361C796.813 151.701 796.562 148.991 795.869 146.396C795.807 146.16 796.175 146.065 796.253 146.295Z" fill="black"/>
<path d="M795.564 141.693C795.771 142.128 795.972 142.526 796.09 142.991C796.186 143.374 796.328 143.88 795.998 144.183C795.9 144.273 795.76 144.245 795.685 144.144C795.451 143.834 795.556 143.343 795.489 142.973C795.417 142.562 795.36 142.169 795.324 141.753C795.314 141.636 795.51 141.582 795.562 141.691L795.564 141.693Z" fill="black"/>
</g>
<defs>
<clipPath id="clip0_555_431">
<rect width="165" height="186" fill="white" transform="translate(638)"/>
</clipPath>
</defs>
</svg>
