<svg width="34" height="34" viewBox="0 0 34 34" fill="none" xmlns="http://www.w3.org/2000/svg">
<path d="M5.67284 9.09037L1.0791 4.49663L3.08257 2.49316L7.67631 7.0869H29.2688C30.0512 7.0869 30.6854 7.72117 30.6854 8.50357C30.6854 8.64144 30.6653 8.77859 30.6258 8.91065L27.2258 20.244C27.046 20.8432 26.4944 21.2536 25.8688 21.2536H8.50618V24.087H24.0896V26.9203H7.08951C6.3071 26.9203 5.67284 26.2859 5.67284 25.5036V9.09037ZM8.50618 9.92024V18.4203H24.8148L27.3648 9.92024H8.50618ZM7.79784 32.587C6.62423 32.587 5.67284 31.6355 5.67284 30.462C5.67284 29.2883 6.62423 28.337 7.79784 28.337C8.97145 28.337 9.92284 29.2883 9.92284 30.462C9.92284 31.6355 8.97145 32.587 7.79784 32.587ZM24.7979 32.587C23.6242 32.587 22.6729 31.6355 22.6729 30.462C22.6729 29.2883 23.6242 28.337 24.7979 28.337C25.9715 28.337 26.9229 29.2883 26.9229 30.462C26.9229 31.6355 25.9715 32.587 24.7979 32.587Z" fill="black"/>
</svg>
